<svg id="Layer_1" data-name="Layer 1" xmlns="http://www.w3.org/2000/svg" viewBox="0 0 85.77 60.91"><defs><style>.cls-1{fill:#fff;}</style></defs><title>10Percent</title><path class="cls-1" d="M33.84,89.55v-55A27,27,0,0,1,26.11,38V34.84a27.65,27.65,0,0,0,8.77-5.19h2.48v59.9Z" transform="translate(-26.11 -29.37)"/><path class="cls-1" d="M68.93,43.76V76.14c0,11.29-5.07,14.14-11.13,14.14-5.52,0-10.95-2.67-10.95-14V43.86c0-12.12,6.09-14.49,11.23-14.49C63,29.37,68.93,31.74,68.93,43.76Zm-18.48.08V76.08c0,7.43,2.36,10.71,7.53,10.71,4.37,0,7.35-2,7.35-10.89v-32c0-8.67-3.34-11.05-7.44-11.05S50.45,34.88,50.45,43.84Z" transform="translate(-26.11 -29.37)"/><path class="cls-1" d="M90.76,38.38v13.1C90.76,55.4,89.61,61,83,61s-7.82-5.43-7.82-9.63V38.73c0-6.25,3-9.36,7.91-9.36C87.55,29.37,90.76,32.05,90.76,38.38ZM78.29,89.55,105.56,30.1h3L81.25,89.55Zm.11-50.83V51.13C78.4,56,79.76,58,83,58c3.46,0,4.54-2.11,4.54-6.91V38.63c0-3.73-1.27-6.36-4.54-6.36S78.4,34.37,78.4,38.72Zm33.48,28.91v13.1c0,3.92-1.15,9.55-7.73,9.55-6.92,0-7.82-5.43-7.82-9.63V68c0-6.25,3-9.37,7.91-9.37C108.67,58.62,111.88,61.29,111.88,67.63ZM99.52,68V80.39c0,4.35,1.36,6.9,4.63,6.9,3.46,0,4.55-2.1,4.55-6.91V67.88c0-3.73-1.28-6.36-4.55-6.36S99.52,63.62,99.52,68Z" transform="translate(-26.11 -29.37)"/></svg>