<svg id="Layer_1" data-name="Layer 1" xmlns="http://www.w3.org/2000/svg" viewBox="0 0 94.2 60.91"><defs><style>.cls-1{fill:#fff;}</style></defs><title>80Percent</title><path class="cls-1" d="M28.66,76.63V69c0-8,3.19-10.41,5.85-11.88-3.11-1.66-4.94-4.85-4.94-10.54V41.77c0-6.93,2.8-12.4,10.58-12.4,7,0,10.13,4.55,10.13,12.22V46c0,7.67-2.47,9.7-5.3,11.08,3.57,1.47,5.94,4.49,5.94,11.62v7.8c0,8.13-2.62,13.76-11.13,13.76C31.57,90.28,28.66,84.58,28.66,76.63Zm18.84-.08V68.78c0-6.73-2.28-9.89-7.62-9.89s-7.71,2.91-7.71,10.42v7c0,6.08,2,10.79,7.62,10.79C46.12,87.07,47.5,82.28,47.5,76.55ZM33.16,41.84v5.29C33.16,52,35,55.67,40,55.67c4.53,0,6.72-2.63,6.72-8.63V41.75c0-4.9-1.1-9.16-6.72-9.16C34.88,32.59,33.16,36.4,33.16,41.84Z" transform="translate(-28.66 -29.37)"/><path class="cls-1" d="M79.91,43.76V76.14c0,11.29-5.07,14.14-11.14,14.14-5.51,0-10.94-2.67-10.94-14V43.86c0-12.12,6.09-14.49,11.22-14.49C74,29.37,79.91,31.74,79.91,43.76Zm-18.48.08V76.08c0,7.43,2.35,10.71,7.53,10.71,4.36,0,7.34-2,7.34-10.89v-32c0-8.67-3.33-11.05-7.43-11.05S61.43,34.88,61.43,43.84Z" transform="translate(-28.66 -29.37)"/><path class="cls-1" d="M101.73,38.38v13.1c0,3.92-1.15,9.55-7.73,9.55s-7.81-5.43-7.81-9.63V38.73c0-6.25,3-9.36,7.91-9.36C98.52,29.37,101.73,32.05,101.73,38.38ZM89.26,89.55,116.54,30.1h3L92.23,89.55Zm.11-50.83V51.13C89.37,56,90.73,58,94,58c3.46,0,4.55-2.11,4.55-6.91V38.63c0-3.73-1.27-6.36-4.54-6.36S89.37,34.37,89.37,38.72Zm33.48,28.91v13.1c0,3.92-1.15,9.55-7.72,9.55-6.93,0-7.82-5.43-7.82-9.63V68c0-6.25,3-9.37,7.91-9.37C119.64,58.62,122.85,61.29,122.85,67.63ZM110.49,68V80.39c0,4.35,1.36,6.9,4.64,6.9,3.45,0,4.54-2.1,4.54-6.91V67.88c0-3.73-1.27-6.36-4.54-6.36S110.49,63.62,110.49,68Z" transform="translate(-28.66 -29.37)"/></svg>